{
    "asset" : {
        "generator" : "Khronos glTF Blender I/O v1.8.19",
        "version" : "2.0"
    },
    "scene" : 0,
    "scenes" : [
        {
            "name" : "Scene",
            "nodes" : [
                0
            ]
        }
    ],
    "nodes" : [
        {
            "mesh" : 0,
            "name" : "Icosphere",
            "rotation" : [
                0.04172157868742943,
                0.19340457022190094,
                -0.020514436066150665,
                0.9800168871879578
            ],
            "scale" : [ 5,5,5
            ],
            "translation" : [
                -0.02051394060254097,
                -0.026173904538154602,
                -0.06572024524211884
            ]
        }
    ],
    "materials" : [
        {
            "doubleSided" : true,
            "name" : "Material.002",
            "pbrMetallicRoughness" : {
                "metallicFactor" : 0.913385808467865,
                "roughnessFactor" : 0.36052632331848145
            }
        },
        {
            "doubleSided" : true,
            "name" : "Material.004",
            "pbrMetallicRoughness" : {
                "baseColorFactor" : [
                    0,
                    0,
                    0,
                    1
                ],
                "metallicFactor" : 0,
                "roughnessFactor" : 0.12204724550247192
            }
        }
    ],
    "meshes" : [
        {
            "name" : "Icosphere",
            "primitives" : [
                {
                    "attributes" : {
                        "POSITION" : 0,
                        "NORMAL" : 1,
                        "TEXCOORD_0" : 2
                    },
                    "indices" : 3,
                    "material" : 0
                },
                {
                    "attributes" : {
                        "POSITION" : 4,
                        "NORMAL" : 5,
                        "TEXCOORD_0" : 6
                    },
                    "indices" : 7,
                    "material" : 1
                }
            ]
        }
    ],
    "accessors" : [
        {
            "bufferView" : 0,
            "componentType" : 5126,
            "count" : 138240,
            "max" : [
                0.6538864970207214,
                0.7440606951713562,
                0.9312586784362793
            ],
            "min" : [
                -0.9151040315628052,
                -0.8249831795692444,
                -0.6382122039794922
            ],
            "type" : "VEC3"
        },
        {
            "bufferView" : 1,
            "componentType" : 5126,
            "count" : 138240,
            "type" : "VEC3"
        },
        {
            "bufferView" : 2,
            "componentType" : 5126,
            "count" : 138240,
            "type" : "VEC2"
        },
        {
            "bufferView" : 3,
            "componentType" : 5125,
            "count" : 199680,
            "type" : "SCALAR"
        },
        {
            "bufferView" : 4,
            "componentType" : 5126,
            "count" : 559,
            "max" : [
                0.43047812581062317,
                0.43850335478782654,
                0.4960520267486572
            ],
            "min" : [
                -0.37230461835861206,
                -0.3642790913581848,
                -0.3096822500228882
            ],
            "type" : "VEC3"
        },
        {
            "bufferView" : 5,
            "componentType" : 5126,
            "count" : 559,
            "type" : "VEC3"
        },
        {
            "bufferView" : 6,
            "componentType" : 5126,
            "count" : 559,
            "type" : "VEC2"
        },
        {
            "bufferView" : 7,
            "componentType" : 5123,
            "count" : 2880,
            "type" : "SCALAR"
        }
    ],
    "bufferViews" : [
        {
            "buffer" : 0,
            "byteLength" : 1658880,
            "byteOffset" : 0
        },
        {
            "buffer" : 0,
            "byteLength" : 1658880,
            "byteOffset" : 1658880
        },
        {
            "buffer" : 0,
            "byteLength" : 1105920,
            "byteOffset" : 3317760
        },
        {
            "buffer" : 0,
            "byteLength" : 798720,
            "byteOffset" : 4423680
        },
        {
            "buffer" : 0,
            "byteLength" : 6708,
            "byteOffset" : 5222400
        },
        {
            "buffer" : 0,
            "byteLength" : 6708,
            "byteOffset" : 5229108
        },
        {
            "buffer" : 0,
            "byteLength" : 4472,
            "byteOffset" : 5235816
        },
        {
            "buffer" : 0,
            "byteLength" : 5760,
            "byteOffset" : 5240288
        }
    ],
    "buffers" : [
        {
            "byteLength" : 5246048,
            "uri" : "abs2obj.bin"
        }
    ]
}
