<svg width="862" height="896" viewBox="0 0 862 896" fill="none" xmlns="http://www.w3.org/2000/svg">
<rect x="358" width="147" height="408" rx="73.5" fill="url(#paint0_linear_173_569)"/>
<rect x="430" y="528.227" width="147" height="408" rx="73.5" transform="rotate(-65 430 528.227)" fill="url(#paint1_linear_173_569)"/>
<rect x="369.773" y="395" width="147" height="408" rx="73.5" transform="rotate(65 369.773 395)" fill="url(#paint2_linear_173_569)"/>
<path d="M125.15 855.324C121.81 857.439 117.802 859.109 113.126 860.334C108.561 861.559 104.052 862.171 99.5989 862.171C96.5929 862.171 92.9189 861.67 88.5769 860.668C84.2349 859.777 79.9486 858.107 75.7179 855.658C71.4873 853.097 67.9246 849.535 65.0299 844.97C62.2466 840.294 60.8549 834.338 60.8549 827.101C60.8549 822.314 61.6899 817.471 63.3599 812.572C65.0299 807.673 67.5349 803.164 70.8749 799.045C74.2149 794.926 78.4456 791.641 83.5669 789.192C88.6883 786.631 94.7559 785.351 101.77 785.351C109.229 785.351 115.464 786.464 120.474 788.691C125.595 790.918 129.77 793.645 132.999 796.874L119.806 811.069C118.359 809.622 116.243 808.174 113.46 806.727C110.677 805.28 107.281 804.556 103.273 804.556C100.044 804.556 96.9826 805.447 94.0879 807.228C91.1933 809.009 88.8553 811.459 87.0739 814.576C85.2926 817.693 84.4019 821.312 84.4019 825.431C84.4019 828.771 85.1813 831.777 86.7399 834.449C88.2986 837.121 90.5253 839.292 93.4199 840.962C96.3146 842.521 99.7659 843.3 103.774 843.3C106.001 843.3 108.06 843.022 109.953 842.465C111.957 841.908 113.738 841.073 115.297 839.96L125.15 855.324ZM163.285 787.021L162.617 803.22C165.289 798.878 168.462 795.26 172.136 792.365C175.921 789.359 179.706 787.132 183.492 785.685C187.388 784.126 190.673 783.347 193.345 783.347L189.337 806.727C183.993 806.059 179.205 806.95 174.975 809.399C170.744 811.848 167.348 815.077 164.788 819.085C162.227 823.093 160.668 827.212 160.112 831.443L156.605 860H133.392L142.243 787.021H163.285ZM228.169 862.004C223.827 862.004 219.318 861.336 214.642 860C209.966 858.553 205.569 856.382 201.449 853.487C197.441 850.592 194.157 846.863 191.596 842.298C189.147 837.733 187.922 832.278 187.922 825.932C187.922 821.479 188.646 816.803 190.093 811.904C191.652 807.005 194.101 802.441 197.441 798.21C200.781 793.868 205.235 790.361 210.801 787.689C216.368 785.017 223.159 783.681 231.175 783.681C237.744 783.681 244.034 785.073 250.046 787.856C256.17 790.528 261.18 794.536 265.076 799.88C269.084 805.224 271.088 811.848 271.088 819.753C271.088 822.536 270.699 825.821 269.919 829.606C269.14 833.28 267.804 837.01 265.911 840.795C264.019 844.58 261.458 848.087 258.229 851.316C255.001 854.433 250.881 856.994 245.871 858.998C240.973 861.002 235.072 862.004 228.169 862.004ZM228.837 842.799C233.625 842.799 237.354 841.574 240.026 839.125C242.698 836.676 244.591 833.725 245.704 830.274C246.818 826.823 247.374 823.65 247.374 820.755C247.374 816.858 246.706 813.741 245.37 811.403C244.146 808.954 242.587 807.117 240.694 805.892C238.802 804.667 236.909 803.832 235.016 803.387C233.124 802.942 231.565 802.719 230.34 802.719C225.776 802.719 222.102 803.944 219.318 806.393C216.535 808.731 214.531 811.626 213.306 815.077C212.082 818.528 211.469 821.757 211.469 824.763C211.469 829.773 212.471 833.558 214.475 836.119C216.591 838.68 218.984 840.461 221.656 841.463C224.44 842.354 226.833 842.799 228.837 842.799ZM300.521 861.503C298.517 861.503 295.678 861.169 292.004 860.501C288.33 859.944 284.433 858.664 280.314 856.66C276.306 854.656 272.743 851.594 269.626 847.475L280.815 835.284C283.821 838.624 286.548 841.018 288.998 842.465C291.447 843.912 293.618 844.803 295.511 845.137C297.515 845.36 299.129 845.471 300.354 845.471C303.805 845.471 306.032 844.747 307.034 843.3C308.036 841.853 308.537 840.517 308.537 839.292C308.537 837.622 307.813 836.286 306.366 835.284C305.03 834.171 303.248 833.224 301.022 832.445C298.906 831.666 296.68 830.831 294.342 829.94C288.552 827.713 284.377 824.763 281.817 821.089C279.367 817.415 278.143 813.407 278.143 809.065C278.143 806.838 278.532 804.333 279.312 801.55C280.202 798.655 281.65 795.872 283.654 793.2C285.769 790.528 288.664 788.301 292.338 786.52C296.123 784.739 300.966 783.848 306.867 783.848C310.207 783.848 313.547 784.126 316.887 784.683C320.338 785.128 323.678 786.075 326.907 787.522C330.247 788.858 333.42 790.806 336.426 793.367L325.905 806.56C323.567 804.222 321.117 802.441 318.557 801.216C316.107 799.991 313.435 799.379 310.541 799.379C308.425 799.379 306.755 799.713 305.531 800.381C304.306 800.938 303.415 801.717 302.859 802.719C302.302 803.721 302.024 804.779 302.024 805.892C302.024 807.673 302.859 809.121 304.529 810.234C306.199 811.347 308.203 812.294 310.541 813.073C312.99 813.852 315.384 814.743 317.722 815.745C321.062 817.081 323.901 818.751 326.239 820.755C328.577 822.759 330.247 825.153 331.249 827.936C332.362 830.608 332.696 833.781 332.251 837.455C331.917 840.684 330.97 843.801 329.412 846.807C327.853 849.702 325.738 852.262 323.066 854.489C320.505 856.716 317.332 858.441 313.547 859.666C309.761 860.891 305.419 861.503 300.521 861.503ZM365.357 861.503C363.353 861.503 360.514 861.169 356.84 860.501C353.166 859.944 349.27 858.664 345.15 856.66C341.142 854.656 337.58 851.594 334.462 847.475L345.651 835.284C348.657 838.624 351.385 841.018 353.834 842.465C356.284 843.912 358.455 844.803 360.347 845.137C362.351 845.36 363.966 845.471 365.19 845.471C368.642 845.471 370.868 844.747 371.87 843.3C372.872 841.853 373.373 840.517 373.373 839.292C373.373 837.622 372.65 836.286 371.202 835.284C369.866 834.171 368.085 833.224 365.858 832.445C363.743 831.666 361.516 830.831 359.178 829.94C353.389 827.713 349.214 824.763 346.653 821.089C344.204 817.415 342.979 813.407 342.979 809.065C342.979 806.838 343.369 804.333 344.148 801.55C345.039 798.655 346.486 795.872 348.49 793.2C350.606 790.528 353.5 788.301 357.174 786.52C360.96 784.739 365.803 783.848 371.703 783.848C375.043 783.848 378.383 784.126 381.723 784.683C385.175 785.128 388.515 786.075 391.743 787.522C395.083 788.858 398.256 790.806 401.262 793.367L390.741 806.56C388.403 804.222 385.954 802.441 383.393 801.216C380.944 799.991 378.272 799.379 375.377 799.379C373.262 799.379 371.592 799.713 370.367 800.381C369.143 800.938 368.252 801.717 367.695 802.719C367.139 803.721 366.86 804.779 366.86 805.892C366.86 807.673 367.695 809.121 369.365 810.234C371.035 811.347 373.039 812.294 375.377 813.073C377.827 813.852 380.22 814.743 382.558 815.745C385.898 817.081 388.737 818.751 391.075 820.755C393.413 822.759 395.083 825.153 396.085 827.936C397.199 830.608 397.533 833.781 397.087 837.455C396.753 840.684 395.807 843.801 394.248 846.807C392.69 849.702 390.574 852.262 387.902 854.489C385.342 856.716 382.169 858.441 378.383 859.666C374.598 860.891 370.256 861.503 365.357 861.503ZM467.435 855.324C464.095 857.439 460.087 859.109 455.411 860.334C450.846 861.559 446.337 862.171 441.884 862.171C438.878 862.171 435.204 861.67 430.862 860.668C426.52 859.777 422.233 858.107 418.003 855.658C413.772 853.097 410.209 849.535 407.315 844.97C404.531 840.294 403.14 834.338 403.14 827.101C403.14 822.314 403.975 817.471 405.645 812.572C407.315 807.673 409.82 803.164 413.16 799.045C416.5 794.926 420.73 791.641 425.852 789.192C430.973 786.631 437.041 785.351 444.055 785.351C451.514 785.351 457.749 786.464 462.759 788.691C467.88 790.918 472.055 793.645 475.284 796.874L462.091 811.069C460.643 809.622 458.528 808.174 455.745 806.727C452.961 805.28 449.566 804.556 445.558 804.556C442.329 804.556 439.267 805.447 436.373 807.228C433.478 809.009 431.14 811.459 429.359 814.576C427.577 817.693 426.687 821.312 426.687 825.431C426.687 828.771 427.466 831.777 429.025 834.449C430.583 837.121 432.81 839.292 435.705 840.962C438.599 842.521 442.051 843.3 446.059 843.3C448.285 843.3 450.345 843.022 452.238 842.465C454.242 841.908 456.023 841.073 457.582 839.96L467.435 855.324ZM505.402 798.878C508.52 794.313 512.639 790.639 517.76 787.856C522.993 784.961 529.005 783.514 535.796 783.514C542.699 783.514 548.154 785.574 552.162 789.693C556.282 793.701 558.063 798.934 557.506 805.391L550.826 860H527.446L532.957 814.075C533.18 810.846 532.623 808.286 531.287 806.393C529.951 804.389 527.391 803.387 523.605 803.387C520.043 803.387 516.758 804.556 513.752 806.894C510.858 809.232 508.464 812.405 506.571 816.413C504.679 820.421 503.398 825.041 502.73 830.274L499.056 860H475.676L491.708 728.237H514.587L505.569 803.053L505.402 798.878ZM568.483 895.07L630.44 787.021H651.482L591.028 895.07H568.483ZM592.364 860.334L565.644 787.021H591.863L611.736 848.644L592.364 860.334ZM662.51 806.059C658.502 806.059 655.162 804.612 652.49 801.717C649.93 798.822 648.928 794.926 649.484 790.027L650.653 780.007H668.188L668.021 782.345C667.687 784.683 667.91 786.075 668.689 786.52C669.469 786.854 670.916 787.021 673.031 787.021H719.29L671.695 845.805L668.021 840.962H712.276L709.938 860H635.957L684.888 799.379L687.56 806.059H662.51ZM763.622 842.131C765.849 842.131 767.964 841.741 769.968 840.962C772.084 840.183 774.199 839.236 776.314 838.123L784.497 856.159C780.823 857.94 776.927 859.332 772.807 860.334C768.799 861.336 764.903 861.837 761.117 861.837C753.101 861.837 746.087 860.501 740.075 857.829C734.175 855.046 729.554 850.871 726.214 845.304C722.874 839.626 721.204 832.556 721.204 824.095C721.204 819.753 721.984 815.244 723.542 810.568C725.212 805.892 727.717 801.55 731.057 797.542C734.509 793.423 738.962 790.083 744.417 787.522C749.984 784.961 756.664 783.681 764.457 783.681C768.688 783.681 772.863 784.238 776.982 785.351C781.213 786.353 785.054 788.246 788.505 791.029C792.068 793.701 795.074 797.486 797.523 802.385C800.084 807.284 801.865 813.63 802.867 821.423L744.083 835.952L740.409 822.926L786.167 811.069L777.984 813.574C777.094 809.789 775.312 806.894 772.64 804.89C770.08 802.886 767.074 801.884 763.622 801.884C759.058 801.884 755.384 802.83 752.6 804.723C749.817 806.616 747.757 809.065 746.421 812.071C745.197 815.077 744.584 818.194 744.584 821.423C744.584 826.99 745.586 831.276 747.59 834.282C749.706 837.288 752.211 839.348 755.105 840.461C758.111 841.574 760.95 842.131 763.622 842.131Z" fill="white"/>
<defs>
<linearGradient id="paint0_linear_173_569" x1="431.5" y1="0" x2="431.5" y2="408" gradientUnits="userSpaceOnUse">
<stop stop-color="#737373" stop-opacity="0"/>
<stop offset="1" stop-color="#8C3A87"/>
</linearGradient>
<linearGradient id="paint1_linear_173_569" x1="503.5" y1="528.227" x2="503.5" y2="936.227" gradientUnits="userSpaceOnUse">
<stop stop-color="#8C3A87"/>
<stop offset="1" stop-color="#737373" stop-opacity="0"/>
</linearGradient>
<linearGradient id="paint2_linear_173_569" x1="443.273" y1="395" x2="443.273" y2="803" gradientUnits="userSpaceOnUse">
<stop stop-color="#8C3A87"/>
<stop offset="1" stop-color="#737373" stop-opacity="0"/>
</linearGradient>
</defs>
</svg>
