<svg width="1069" height="189" viewBox="0 0 1069 189" fill="none" xmlns="http://www.w3.org/2000/svg">
<g clip-path="url(#clip0_16_2837)">
<path d="M159.091 40.875C142.042 40.875 126.665 47.9613 115.904 59.2605L135.164 87.5083C139.311 78.6809 148.474 72.5321 159.091 72.5321C173.597 72.5321 185.397 84.0017 185.397 98.1013C185.397 112.201 173.597 123.67 159.091 123.67C149.282 123.67 141.171 118.161 136.198 110.673C110.862 72.5321 114.683 77.8955 106.484 65.4519C104.492 62.4262 102.1 59.2909 101.499 58.676C90.7693 47.7178 75.6307 40.875 58.8761 40.875C26.4128 40.875 0 66.5477 0 98.1013C0 129.655 26.4128 155.328 58.8761 155.328C76.0127 155.328 91.4583 148.174 102.225 136.778L83.0967 108.079C79.0881 117.236 69.7431 123.67 58.8761 123.67C44.37 123.67 32.5697 112.201 32.5697 98.1013C32.5697 84.0017 44.37 72.5321 58.8761 72.5321C68.553 72.5321 76.7581 77.7981 81.5935 85.2314C101.467 115.756 103.315 118.124 111.915 131.104C114.132 134.446 117.715 138.799 118.886 139.864C129.415 149.447 143.557 155.328 159.091 155.328C191.554 155.328 217.967 129.655 217.967 98.1013C217.967 66.5477 191.554 40.875 159.091 40.875Z" fill="white"/>
</g>
<path d="M272.636 156V44.3293H293.022V156H272.636ZM312.852 156V74.4579H331.289V90.4965L329.79 87.6485C331.689 82.752 334.786 79.0546 339.083 76.5564C343.48 73.9583 348.577 72.6592 354.373 72.6592C360.368 72.6592 365.665 73.9583 370.261 76.5564C374.958 79.1546 378.605 82.802 381.204 87.4986C383.802 92.0954 385.101 97.4416 385.101 103.537V156H365.465V108.184C365.465 104.587 364.765 101.489 363.366 98.8906C361.967 96.2924 360.019 94.2938 357.52 92.8948C355.122 91.3959 352.274 90.6464 348.976 90.6464C345.779 90.6464 342.931 91.3959 340.432 92.8948C337.934 94.2938 335.986 96.2924 334.587 98.8906C333.188 101.489 332.488 104.587 332.488 108.184V156H312.852ZM411.148 156V91.9954H396.758V74.4579H411.148V71.7598C411.148 65.5642 412.397 60.3179 414.896 56.021C417.494 51.6241 421.091 48.2765 425.688 45.9781C430.285 43.6798 435.731 42.5306 442.026 42.5306C443.225 42.5306 444.525 42.6305 445.924 42.8304C447.423 42.9303 448.672 43.0802 449.671 43.28V60.218C448.672 60.0182 447.722 59.9182 446.823 59.9182C446.023 59.8183 445.274 59.7683 444.575 59.7683C440.178 59.7683 436.78 60.7676 434.382 62.7662C431.983 64.6649 430.784 67.6627 430.784 71.7598V74.4579H466.459V91.9954H430.784V156H411.148ZM459.114 156V74.4579H478.9V156H459.114ZM495.242 156V74.4579H513.679V90.4965L512.18 87.6485C514.079 82.752 517.177 79.0546 521.473 76.5564C525.87 73.9583 530.967 72.6592 536.763 72.6592C542.758 72.6592 548.055 73.9583 552.651 76.5564C557.348 79.1546 560.995 82.802 563.594 87.4986C566.192 92.0954 567.491 97.4416 567.491 103.537V156H547.855V108.184C547.855 104.587 547.155 101.489 545.756 98.8906C544.357 96.2924 542.409 94.2938 539.91 92.8948C537.512 91.3959 534.664 90.6464 531.366 90.6464C528.169 90.6464 525.321 91.3959 522.822 92.8948C520.324 94.2938 518.376 96.2924 516.977 98.8906C515.578 101.489 514.878 104.587 514.878 108.184V156H495.242ZM584.095 156V74.4579H603.731V156H584.095ZM584.095 65.3144V44.3293H603.731V65.3144H584.095ZM614.516 156L642.996 115.079L614.366 74.4579H637.45L659.784 107.434H649.442L671.776 74.4579H694.709L666.23 115.079L694.56 156H671.626L649.591 123.173H659.634L637.6 156H614.516Z" fill="white"/>
<path d="M805.618 86.9766V46.369H810.959V64.4653H831.29V46.369H836.687V86.9766H831.29V69.3709H810.959V86.9766H805.618ZM865.104 87.6306C862.233 87.6306 859.544 87.1219 857.037 86.1045C854.53 85.0507 852.331 83.579 850.442 81.6894C848.588 79.7998 847.135 77.5832 846.081 75.0396C845.027 72.4596 844.5 69.6616 844.5 66.6455C844.5 63.5932 845.027 60.7952 846.081 58.2515C847.135 55.7079 848.588 53.4912 850.442 51.6017C852.331 49.7121 854.511 48.2586 856.982 47.2411C859.49 46.2237 862.197 45.715 865.104 45.715C868.011 45.715 870.7 46.2419 873.171 47.2956C875.678 48.3131 877.858 49.7666 879.712 51.6562C881.601 53.5094 883.073 55.7079 884.127 58.2515C885.217 60.7952 885.762 63.5932 885.762 66.6455C885.762 69.6616 885.217 72.4596 884.127 75.0396C883.073 77.5832 881.601 79.7998 879.712 81.6894C877.858 83.579 875.678 85.0507 873.171 86.1045C870.7 87.1219 868.011 87.6306 865.104 87.6306ZM865.104 82.6705C867.357 82.6705 869.41 82.2708 871.263 81.4714C873.116 80.6356 874.715 79.491 876.06 78.0375C877.441 76.5476 878.494 74.8397 879.221 72.9138C879.984 70.9516 880.366 68.8622 880.366 66.6455C880.366 64.4289 879.984 62.3577 879.221 60.4318C878.494 58.5059 877.441 56.8162 876.06 55.3626C874.715 53.8728 873.116 52.7282 871.263 51.9287C869.41 51.093 867.357 50.6751 865.104 50.6751C862.887 50.6751 860.852 51.093 858.999 51.9287C857.146 52.7282 855.529 53.8728 854.148 55.3626C852.803 56.8162 851.75 58.5059 850.987 60.4318C850.223 62.3577 849.842 64.4289 849.842 66.6455C849.842 68.8622 850.223 70.9516 850.987 72.9138C851.75 74.8397 852.803 76.5476 854.148 78.0375C855.529 79.491 857.146 80.6356 858.999 81.4714C860.852 82.2708 862.887 82.6705 865.104 82.6705ZM893.553 86.9766V46.369H898.894V82.071H916.718V86.9766H893.553ZM922.722 86.9766V46.369H936.022C940.128 46.369 943.707 47.2048 946.76 48.8763C949.812 50.5479 952.174 52.9098 953.846 55.9622C955.517 58.9783 956.353 62.5394 956.353 66.6455C956.353 70.7154 955.517 74.2765 953.846 77.3289C952.174 80.3812 949.812 82.7614 946.76 84.4693C943.707 86.1408 940.128 86.9766 936.022 86.9766H922.722ZM928.064 82.071H936.076C939.092 82.071 941.69 81.435 943.871 80.1632C946.087 78.8914 947.795 77.1108 948.994 74.8216C950.194 72.4959 950.793 69.7706 950.793 66.6455C950.793 63.4842 950.175 60.7588 948.94 58.4695C947.741 56.1802 946.033 54.4179 943.816 53.1824C941.636 51.9106 939.056 51.2746 936.076 51.2746H928.064V82.071ZM963.123 86.9766V46.369H968.465V86.9766H963.123ZM977.495 86.9766V46.369H981.965L1005.29 79.1821L1003.28 79.4001V46.369H1008.67V86.9766H1004.2L980.983 53.9455L982.837 53.7274V86.9766H977.495ZM1036.49 87.6306C1033.62 87.6306 1030.96 87.1219 1028.53 86.1045C1026.09 85.0507 1023.99 83.579 1022.21 81.6894C1020.43 79.7998 1019.03 77.5832 1018.01 75.0396C1017.03 72.4959 1016.54 69.7161 1016.54 66.7001C1016.54 63.6477 1017.03 60.8497 1018.01 58.306C1018.99 55.7624 1020.37 53.5458 1022.15 51.6562C1023.93 49.7666 1026.04 48.3131 1028.47 47.2956C1030.91 46.2419 1033.56 45.715 1036.43 45.715C1039.23 45.715 1041.74 46.2055 1043.95 47.1866C1046.21 48.1678 1048.1 49.4396 1049.62 51.0021C1051.19 52.5646 1052.29 54.2362 1052.95 56.0167L1048.15 58.3605C1047.21 55.9986 1045.73 54.1272 1043.74 52.7463C1041.74 51.3655 1039.3 50.6751 1036.43 50.6751C1033.6 50.6751 1031.07 51.3473 1028.86 52.6918C1026.68 54.0363 1024.97 55.9077 1023.73 58.306C1022.5 60.7043 1021.88 63.5023 1021.88 66.7001C1021.88 69.8614 1022.5 72.6413 1023.73 75.0396C1025 77.4379 1026.73 79.3093 1028.91 80.6538C1031.13 81.9983 1033.65 82.6705 1036.49 82.6705C1038.96 82.6705 1041.19 82.1436 1043.19 81.0898C1045.19 80.036 1046.77 78.5825 1047.93 76.7293C1049.1 74.8761 1049.68 72.7321 1049.68 70.2975V67.7902L1052.13 70.0795H1036.43V65.4464H1055.07V69.0438C1055.07 71.8782 1054.58 74.44 1053.6 76.7293C1052.62 79.0186 1051.28 80.9808 1049.57 82.616C1047.86 84.2149 1045.88 85.4504 1043.63 86.3225C1041.37 87.1946 1038.99 87.6306 1036.49 87.6306ZM824.368 156.631C821.497 156.631 818.845 156.122 816.41 155.104C813.976 154.051 811.868 152.579 810.087 150.689C808.307 148.8 806.908 146.583 805.89 144.04C804.909 141.496 804.419 138.716 804.419 135.7C804.419 132.648 804.909 129.85 805.89 127.306C806.871 124.762 808.252 122.546 810.033 120.656C811.813 118.767 813.921 117.313 816.356 116.296C818.79 115.242 821.443 114.715 824.314 114.715C827.112 114.715 829.619 115.206 831.836 116.187C834.089 117.168 835.978 118.44 837.504 120.002C839.067 121.565 840.175 123.236 840.829 125.017L836.033 127.361C835.088 124.999 833.616 123.127 831.618 121.746C829.619 120.365 827.184 119.675 824.314 119.675C821.479 119.675 818.954 120.347 816.737 121.692C814.557 123.036 812.849 124.908 811.614 127.306C810.378 129.704 809.76 132.502 809.76 135.7C809.76 138.861 810.378 141.641 811.614 144.04C812.885 146.438 814.611 148.309 816.792 149.654C819.008 150.998 821.534 151.671 824.368 151.671C826.839 151.671 829.074 151.144 831.072 150.09C833.071 149.036 834.652 147.583 835.815 145.729C836.977 143.876 837.559 141.732 837.559 139.297V136.79L840.012 139.079H824.314V134.446H842.955V138.044C842.955 140.878 842.464 143.44 841.483 145.729C840.502 148.019 839.158 149.981 837.45 151.616C835.742 153.215 833.761 154.45 831.509 155.322C829.256 156.195 826.875 156.631 824.368 156.631ZM850.171 155.977V115.369H864.506C867.195 115.369 869.557 115.878 871.592 116.895C873.627 117.913 875.207 119.366 876.334 121.256C877.497 123.145 878.078 125.362 878.078 127.906C878.078 130.776 877.351 133.211 875.898 135.209C874.444 137.208 872.482 138.643 870.011 139.516L879.441 155.977H873.227L863.307 138.371L866.85 140.442H855.512V155.977H850.171ZM855.512 135.537H864.669C866.268 135.537 867.667 135.228 868.867 134.61C870.066 133.992 870.992 133.102 871.646 131.939C872.337 130.776 872.682 129.432 872.682 127.906C872.682 126.343 872.337 124.999 871.646 123.872C870.992 122.709 870.066 121.819 868.867 121.201C867.667 120.584 866.268 120.275 864.669 120.275H855.512V135.537ZM904.919 156.631C902.049 156.631 899.36 156.122 896.852 155.104C894.345 154.051 892.147 152.579 890.257 150.689C888.404 148.8 886.95 146.583 885.896 144.04C884.843 141.46 884.316 138.662 884.316 135.646C884.316 132.593 884.843 129.795 885.896 127.252C886.95 124.708 888.404 122.491 890.257 120.602C892.147 118.712 894.327 117.259 896.798 116.241C899.305 115.224 902.012 114.715 904.919 114.715C907.826 114.715 910.515 115.242 912.986 116.296C915.494 117.313 917.674 118.767 919.527 120.656C921.417 122.509 922.888 124.708 923.942 127.252C925.032 129.795 925.577 132.593 925.577 135.646C925.577 138.662 925.032 141.46 923.942 144.04C922.888 146.583 921.417 148.8 919.527 150.689C917.674 152.579 915.494 154.051 912.986 155.104C910.515 156.122 907.826 156.631 904.919 156.631ZM904.919 151.671C907.172 151.671 909.225 151.271 911.079 150.471C912.932 149.636 914.531 148.491 915.875 147.037C917.256 145.548 918.31 143.84 919.037 141.914C919.8 139.952 920.181 137.862 920.181 135.646C920.181 133.429 919.8 131.358 919.037 129.432C918.31 127.506 917.256 125.816 915.875 124.363C914.531 122.873 912.932 121.728 911.079 120.929C909.225 120.093 907.172 119.675 904.919 119.675C902.703 119.675 900.668 120.093 898.815 120.929C896.961 121.728 895.344 122.873 893.963 124.363C892.619 125.816 891.565 127.506 890.802 129.432C890.039 131.358 889.657 133.429 889.657 135.646C889.657 137.862 890.039 139.952 890.802 141.914C891.565 143.84 892.619 145.548 893.963 147.037C895.344 148.491 896.961 149.636 898.815 150.471C900.668 151.271 902.703 151.671 904.919 151.671ZM948.085 156.631C945.141 156.631 942.525 156.013 940.236 154.777C937.983 153.542 936.221 151.852 934.949 149.708C933.713 147.528 933.095 145.057 933.095 142.295V115.369H938.492V142.186C938.492 144.04 938.891 145.693 939.691 147.146C940.527 148.564 941.653 149.672 943.07 150.471C944.524 151.271 946.195 151.671 948.085 151.671C949.974 151.671 951.628 151.271 953.045 150.471C954.498 149.672 955.625 148.564 956.424 147.146C957.26 145.693 957.678 144.04 957.678 142.186V115.369H963.074V142.295C963.074 145.057 962.438 147.528 961.166 149.708C959.931 151.852 958.187 153.542 955.934 154.777C953.681 156.013 951.065 156.631 948.085 156.631ZM971.853 155.977V115.369H986.188C988.877 115.369 991.239 115.878 993.274 116.895C995.309 117.913 996.89 119.366 998.016 121.256C999.179 123.145 999.76 125.362 999.76 127.906C999.76 130.449 999.179 132.666 998.016 134.555C996.89 136.409 995.309 137.862 993.274 138.916C991.275 139.933 988.913 140.442 986.188 140.442H977.194V155.977H971.853ZM977.194 135.537H986.352C987.987 135.537 989.404 135.228 990.603 134.61C991.802 133.992 992.729 133.102 993.383 131.939C994.037 130.776 994.364 129.432 994.364 127.906C994.364 126.343 994.037 124.999 993.383 123.872C992.729 122.709 991.802 121.819 990.603 121.201C989.404 120.584 987.987 120.275 986.352 120.275H977.194V135.537Z" fill="white"/>
<path d="M757.219 40.875L757.219 155.328" stroke="white" stroke-width="2.18027"/>
<defs>
<clipPath id="clip0_16_2837">
<rect width="217.967" height="114.453" fill="white" transform="translate(0 40.875)"/>
</clipPath>
</defs>
</svg>
