<svg fill="#000000" height="200px" width="200px" version="1.1" id="Layer_1" xmlns="http://www.w3.org/2000/svg" xmlns:xlink="http://www.w3.org/1999/xlink" viewBox="0 0 512 512" xml:space="preserve"><g id="SVGRepo_bgCarrier" stroke-width="0"></g><g id="SVGRepo_tracerCarrier" stroke-linecap="round" stroke-linejoin="round"></g><g id="SVGRepo_iconCarrier"> <g> <g> <path d="M509.54,474.752l-14.787-14.787v-35.31c0-2.227-0.884-4.363-2.46-5.937l-22.612-22.614c0.026-0.53,0.04-1.062,0.04-1.599 c0-18.21-14.815-33.025-33.025-33.025c-0.536,0-1.068,0.016-1.599,0.04l-48.66-48.66h25.876c4.637,0,8.396-3.759,8.396-8.396 c0-4.637-3.759-8.396-8.396-8.396h-42.668l-65.783-65.783c17.653-23.447,15.824-57.002-5.512-78.34 c-9.349-9.349-21.046-14.945-33.211-16.808v-23.785h19.031c2.368,0,4.625-1,6.216-2.753c1.591-1.753,2.369-4.096,2.14-6.453 l-6.941-71.647c-0.416-4.303-4.034-7.587-8.357-7.587h-40.973c-4.323,0-7.941,3.283-8.357,7.587l-6.941,71.647 c-0.228,2.357,0.549,4.7,2.14,6.453s3.849,2.753,6.217,2.753h19.031v23.581c-12.696,1.622-24.969,7.282-34.698,17.012 c-21.336,21.336-23.166,54.892-5.512,78.34l-65.783,65.783H99.686c-4.637,0-8.396,3.759-8.396,8.396s3.759,8.396,8.396,8.396 h25.876l-48.824,48.824c-1.196-0.132-2.408-0.205-3.638-0.205c-18.21,0-33.025,14.815-33.025,33.025 c0,1.23,0.073,2.443,0.205,3.638l-20.573,20.573c-1.575,1.574-2.46,3.71-2.46,5.937v35.31L2.459,474.752 c-3.279,3.279-3.279,8.594,0,11.873c1.639,1.64,3.788,2.46,5.937,2.46c2.148,0,4.298-0.819,5.937-2.46l17.221-17.221 c0.008-0.008,0.018-0.015,0.026-0.023l41.859-41.859c17.94-0.182,32.493-14.737,32.677-32.676l81.983-81.985h59.504v11.755 c0,4.637,3.759,8.396,8.396,8.396s8.396-3.759,8.396-8.396v-11.755H323.9l79.823,79.823c-0.032,0.603-0.053,1.21-0.053,1.82 c0,18.21,14.815,33.025,33.025,33.025c0.611,0,1.218-0.019,1.82-0.053l41.902,41.902c0.008,0.008,0.018,0.016,0.026,0.023 l17.221,17.221c1.639,1.64,3.788,2.46,5.937,2.46c2.148,0,4.298-0.819,5.937-2.46C512.82,483.347,512.82,478.031,509.54,474.752z M238.565,94.562l5.314-54.855h25.729l5.314,54.855H238.565z M34.039,443.175v-15.043l13.165-13.165 c2.213,2.795,4.867,5.226,7.859,7.184L34.039,443.175z M73.099,410.739c-8.95,0-16.233-7.282-16.233-16.233 c0-8.95,7.282-16.233,16.233-16.233s16.233,7.282,16.233,16.233C89.332,403.457,82.049,410.739,73.099,410.739z M100.744,376.47 c-1.958-2.991-4.388-5.646-7.184-7.859l126.025-126.025l7.524,7.518L100.744,376.47z M264.396,296.07v-11.755 c0-4.637-3.759-8.396-8.396-8.396s-8.396,3.759-8.396,8.396v11.755h-42.712l40.03-40.03c1.575-1.575,2.46-3.711,2.46-5.938 s-0.886-4.363-2.461-5.938l-19.4-19.387l0.003-0.003c-16.805-16.805-16.805-44.148,0-60.953c16.803-16.805,44.148-16.806,60.954,0 c16.805,16.805,16.805,44.148,0,60.953l0.003,0.003l-19.4,19.387c-1.575,1.574-2.461,3.71-2.461,5.938s0.884,4.363,2.46,5.938 l40.029,40.03H264.396z M409.952,375.167l-125.06-125.061l7.523-7.518l125.078,125.078 C414.594,369.746,412.045,372.28,409.952,375.167z M436.696,410.739c-8.95,0-16.233-7.282-16.233-16.233 s7.282-16.233,16.233-16.233c8.95,0,16.233,7.282,16.233,16.233C452.929,403.457,445.647,410.739,436.696,410.739z M477.961,443.175l-21.924-21.924c2.888-2.095,5.422-4.643,7.502-7.541l14.422,14.422V443.175z"></path> </g> </g> </g></svg>