<svg width="300" height="300" viewBox="0 0 300 300" fill="none" xmlns="http://www.w3.org/2000/svg">
<path d="M247.95 199.158C208.19 254.358 141.183 273.785 98.321 242.912C55.4591 212.039 52.6553 142.329 92.4148 87.1293C132.174 31.9294 199.182 12.5029 242.043 43.3755C284.905 74.2481 287.709 143.958 247.95 199.158Z" stroke="white"/>
<path d="M205.522 176.662C186.327 203.311 149.742 209.742 123.814 191.066C97.8849 172.39 92.3944 135.653 111.589 109.004C130.784 82.3549 167.368 75.9232 193.297 94.5992C219.226 113.275 224.716 150.013 205.522 176.662Z" stroke="white"/>
<path d="M228.094 189.495C188.335 244.695 121.327 264.122 78.4654 233.249C35.6035 202.376 32.7997 132.666 72.5592 77.4662C112.319 22.2663 179.326 2.83979 222.188 33.7124C265.05 64.585 267.854 134.295 228.094 189.495Z" stroke="white"/>
<path d="M157.491 120.068L173.978 148.624H141.004L157.491 120.068Z" fill="white"/>
</svg>
